<mxfile host="app.diagrams.net" modified="2022-02-04T22:35:57.332Z" agent="5.0 (Windows NT 10.0; Win64; x64) AppleWebKit/537.36 (KHTML, like Gecko) Chrome/97.0.4692.99 Safari/537.36" etag="PmuyUf9TvbzdXCyAefNz" version="16.2.7" type="github">
  <diagram id="fF4O6MARhMldezJA6Yz8" name="Page-1">
    <mxGraphModel dx="2021" dy="178" grid="0" gridSize="10" guides="1" tooltips="1" connect="1" arrows="1" fold="1" page="0" pageScale="1" pageWidth="827" pageHeight="1169" math="0" shadow="0">
      <root>
        <mxCell id="0" />
        <mxCell id="1" parent="0" />
        <mxCell id="GN9jJYbK2JuISig61beu-34" value="" style="shape=table;startSize=0;container=1;collapsible=0;childLayout=tableLayout;fillColor=#FFFFFF;" parent="1" vertex="1">
          <mxGeometry x="-177" y="588" width="80" height="80" as="geometry" />
        </mxCell>
        <mxCell id="GN9jJYbK2JuISig61beu-35" value="" style="shape=tableRow;horizontal=0;startSize=0;swimlaneHead=0;swimlaneBody=0;top=0;left=0;bottom=0;right=0;collapsible=0;dropTarget=0;fillColor=none;points=[[0,0.5],[1,0.5]];portConstraint=eastwest;" parent="GN9jJYbK2JuISig61beu-34" vertex="1">
          <mxGeometry width="80" height="20" as="geometry" />
        </mxCell>
        <mxCell id="GN9jJYbK2JuISig61beu-36" value="" style="shape=partialRectangle;html=1;whiteSpace=wrap;connectable=0;overflow=hidden;fillColor=none;top=0;left=0;bottom=0;right=0;pointerEvents=1;" parent="GN9jJYbK2JuISig61beu-35" vertex="1">
          <mxGeometry width="20" height="20" as="geometry">
            <mxRectangle width="20" height="20" as="alternateBounds" />
          </mxGeometry>
        </mxCell>
        <mxCell id="GN9jJYbK2JuISig61beu-37" value="" style="shape=partialRectangle;html=1;whiteSpace=wrap;connectable=0;overflow=hidden;fillColor=#000000;top=0;left=0;bottom=0;right=0;pointerEvents=1;" parent="GN9jJYbK2JuISig61beu-35" vertex="1">
          <mxGeometry x="20" width="20" height="20" as="geometry">
            <mxRectangle width="20" height="20" as="alternateBounds" />
          </mxGeometry>
        </mxCell>
        <mxCell id="GN9jJYbK2JuISig61beu-38" value="" style="shape=partialRectangle;html=1;whiteSpace=wrap;connectable=0;overflow=hidden;fillColor=none;top=0;left=0;bottom=0;right=0;pointerEvents=1;" parent="GN9jJYbK2JuISig61beu-35" vertex="1">
          <mxGeometry x="40" width="20" height="20" as="geometry">
            <mxRectangle width="20" height="20" as="alternateBounds" />
          </mxGeometry>
        </mxCell>
        <mxCell id="GN9jJYbK2JuISig61beu-39" value="" style="shape=partialRectangle;html=1;whiteSpace=wrap;connectable=0;overflow=hidden;fillColor=none;top=0;left=0;bottom=0;right=0;pointerEvents=1;" parent="GN9jJYbK2JuISig61beu-35" vertex="1">
          <mxGeometry x="60" width="20" height="20" as="geometry">
            <mxRectangle width="20" height="20" as="alternateBounds" />
          </mxGeometry>
        </mxCell>
        <mxCell id="GN9jJYbK2JuISig61beu-40" value="" style="shape=tableRow;horizontal=0;startSize=0;swimlaneHead=0;swimlaneBody=0;top=0;left=0;bottom=0;right=0;collapsible=0;dropTarget=0;fillColor=none;points=[[0,0.5],[1,0.5]];portConstraint=eastwest;" parent="GN9jJYbK2JuISig61beu-34" vertex="1">
          <mxGeometry y="20" width="80" height="20" as="geometry" />
        </mxCell>
        <mxCell id="GN9jJYbK2JuISig61beu-41" value="" style="shape=partialRectangle;html=1;whiteSpace=wrap;connectable=0;overflow=hidden;fillColor=none;top=0;left=0;bottom=0;right=0;pointerEvents=1;" parent="GN9jJYbK2JuISig61beu-40" vertex="1">
          <mxGeometry width="20" height="20" as="geometry">
            <mxRectangle width="20" height="20" as="alternateBounds" />
          </mxGeometry>
        </mxCell>
        <mxCell id="GN9jJYbK2JuISig61beu-42" value="" style="shape=partialRectangle;html=1;whiteSpace=wrap;connectable=0;overflow=hidden;fillColor=#000000;top=0;left=0;bottom=0;right=0;pointerEvents=1;" parent="GN9jJYbK2JuISig61beu-40" vertex="1">
          <mxGeometry x="20" width="20" height="20" as="geometry">
            <mxRectangle width="20" height="20" as="alternateBounds" />
          </mxGeometry>
        </mxCell>
        <mxCell id="GN9jJYbK2JuISig61beu-43" value="" style="shape=partialRectangle;html=1;whiteSpace=wrap;connectable=0;overflow=hidden;fillColor=none;top=0;left=0;bottom=0;right=0;pointerEvents=1;" parent="GN9jJYbK2JuISig61beu-40" vertex="1">
          <mxGeometry x="40" width="20" height="20" as="geometry">
            <mxRectangle width="20" height="20" as="alternateBounds" />
          </mxGeometry>
        </mxCell>
        <mxCell id="GN9jJYbK2JuISig61beu-44" value="" style="shape=partialRectangle;html=1;whiteSpace=wrap;connectable=0;overflow=hidden;fillColor=none;top=0;left=0;bottom=0;right=0;pointerEvents=1;" parent="GN9jJYbK2JuISig61beu-40" vertex="1">
          <mxGeometry x="60" width="20" height="20" as="geometry">
            <mxRectangle width="20" height="20" as="alternateBounds" />
          </mxGeometry>
        </mxCell>
        <mxCell id="GN9jJYbK2JuISig61beu-45" value="" style="shape=tableRow;horizontal=0;startSize=0;swimlaneHead=0;swimlaneBody=0;top=0;left=0;bottom=0;right=0;collapsible=0;dropTarget=0;fillColor=none;points=[[0,0.5],[1,0.5]];portConstraint=eastwest;" parent="GN9jJYbK2JuISig61beu-34" vertex="1">
          <mxGeometry y="40" width="80" height="20" as="geometry" />
        </mxCell>
        <mxCell id="GN9jJYbK2JuISig61beu-46" value="" style="shape=partialRectangle;html=1;whiteSpace=wrap;connectable=0;overflow=hidden;fillColor=#000000;top=0;left=0;bottom=0;right=0;pointerEvents=1;" parent="GN9jJYbK2JuISig61beu-45" vertex="1">
          <mxGeometry width="20" height="20" as="geometry">
            <mxRectangle width="20" height="20" as="alternateBounds" />
          </mxGeometry>
        </mxCell>
        <mxCell id="GN9jJYbK2JuISig61beu-47" value="" style="shape=partialRectangle;html=1;whiteSpace=wrap;connectable=0;overflow=hidden;fillColor=#000000;top=0;left=0;bottom=0;right=0;pointerEvents=1;" parent="GN9jJYbK2JuISig61beu-45" vertex="1">
          <mxGeometry x="20" width="20" height="20" as="geometry">
            <mxRectangle width="20" height="20" as="alternateBounds" />
          </mxGeometry>
        </mxCell>
        <mxCell id="GN9jJYbK2JuISig61beu-48" value="" style="shape=partialRectangle;html=1;whiteSpace=wrap;connectable=0;overflow=hidden;fillColor=none;top=0;left=0;bottom=0;right=0;pointerEvents=1;" parent="GN9jJYbK2JuISig61beu-45" vertex="1">
          <mxGeometry x="40" width="20" height="20" as="geometry">
            <mxRectangle width="20" height="20" as="alternateBounds" />
          </mxGeometry>
        </mxCell>
        <mxCell id="GN9jJYbK2JuISig61beu-49" value="" style="shape=partialRectangle;html=1;whiteSpace=wrap;connectable=0;overflow=hidden;fillColor=none;top=0;left=0;bottom=0;right=0;pointerEvents=1;" parent="GN9jJYbK2JuISig61beu-45" vertex="1">
          <mxGeometry x="60" width="20" height="20" as="geometry">
            <mxRectangle width="20" height="20" as="alternateBounds" />
          </mxGeometry>
        </mxCell>
        <mxCell id="GN9jJYbK2JuISig61beu-50" value="" style="shape=tableRow;horizontal=0;startSize=0;swimlaneHead=0;swimlaneBody=0;top=0;left=0;bottom=0;right=0;collapsible=0;dropTarget=0;fillColor=none;points=[[0,0.5],[1,0.5]];portConstraint=eastwest;" parent="GN9jJYbK2JuISig61beu-34" vertex="1">
          <mxGeometry y="60" width="80" height="20" as="geometry" />
        </mxCell>
        <mxCell id="GN9jJYbK2JuISig61beu-51" value="" style="shape=partialRectangle;html=1;whiteSpace=wrap;connectable=0;overflow=hidden;fillColor=none;top=0;left=0;bottom=0;right=0;pointerEvents=1;" parent="GN9jJYbK2JuISig61beu-50" vertex="1">
          <mxGeometry width="20" height="20" as="geometry">
            <mxRectangle width="20" height="20" as="alternateBounds" />
          </mxGeometry>
        </mxCell>
        <mxCell id="GN9jJYbK2JuISig61beu-52" value="" style="shape=partialRectangle;html=1;whiteSpace=wrap;connectable=0;overflow=hidden;fillColor=none;top=0;left=0;bottom=0;right=0;pointerEvents=1;" parent="GN9jJYbK2JuISig61beu-50" vertex="1">
          <mxGeometry x="20" width="20" height="20" as="geometry">
            <mxRectangle width="20" height="20" as="alternateBounds" />
          </mxGeometry>
        </mxCell>
        <mxCell id="GN9jJYbK2JuISig61beu-53" value="" style="shape=partialRectangle;html=1;whiteSpace=wrap;connectable=0;overflow=hidden;fillColor=none;top=0;left=0;bottom=0;right=0;pointerEvents=1;" parent="GN9jJYbK2JuISig61beu-50" vertex="1">
          <mxGeometry x="40" width="20" height="20" as="geometry">
            <mxRectangle width="20" height="20" as="alternateBounds" />
          </mxGeometry>
        </mxCell>
        <mxCell id="GN9jJYbK2JuISig61beu-54" value="" style="shape=partialRectangle;html=1;whiteSpace=wrap;connectable=0;overflow=hidden;fillColor=none;top=0;left=0;bottom=0;right=0;pointerEvents=1;" parent="GN9jJYbK2JuISig61beu-50" vertex="1">
          <mxGeometry x="60" width="20" height="20" as="geometry">
            <mxRectangle width="20" height="20" as="alternateBounds" />
          </mxGeometry>
        </mxCell>
        <mxCell id="GN9jJYbK2JuISig61beu-55" value="" style="endArrow=none;html=1;rounded=0;fillColor=#f8cecc;strokeColor=#b85450;" parent="1" edge="1">
          <mxGeometry width="50" height="50" relative="1" as="geometry">
            <mxPoint x="-73" y="627" as="sourcePoint" />
            <mxPoint x="-207" y="627" as="targetPoint" />
            <Array as="points">
              <mxPoint x="-146" y="627" />
            </Array>
          </mxGeometry>
        </mxCell>
        <mxCell id="GN9jJYbK2JuISig61beu-60" value="" style="shape=partialRectangle;html=1;whiteSpace=wrap;connectable=0;overflow=hidden;fillColor=none;top=1;left=1;bottom=1;right=1;pointerEvents=1;" parent="1" vertex="1">
          <mxGeometry x="-290" y="735" width="20" height="20" as="geometry">
            <mxRectangle width="20" height="20" as="alternateBounds" />
          </mxGeometry>
        </mxCell>
        <mxCell id="GN9jJYbK2JuISig61beu-61" value="" style="shape=partialRectangle;html=1;whiteSpace=wrap;connectable=0;overflow=hidden;fillColor=#000000;top=1;left=1;bottom=1;right=1;pointerEvents=1;" parent="1" vertex="1">
          <mxGeometry x="-270" y="735" width="20" height="20" as="geometry">
            <mxRectangle width="20" height="20" as="alternateBounds" />
          </mxGeometry>
        </mxCell>
        <mxCell id="GN9jJYbK2JuISig61beu-62" value="" style="shape=partialRectangle;html=1;whiteSpace=wrap;connectable=0;overflow=hidden;fillColor=none;top=1;left=1;bottom=1;right=1;pointerEvents=1;" parent="1" vertex="1">
          <mxGeometry x="-250" y="735" width="20" height="20" as="geometry">
            <mxRectangle width="20" height="20" as="alternateBounds" />
          </mxGeometry>
        </mxCell>
        <mxCell id="GN9jJYbK2JuISig61beu-63" value="" style="shape=partialRectangle;html=1;whiteSpace=wrap;connectable=0;overflow=hidden;fillColor=none;top=1;left=1;bottom=1;right=1;pointerEvents=1;" parent="1" vertex="1">
          <mxGeometry x="-230" y="735" width="20" height="20" as="geometry">
            <mxRectangle width="20" height="20" as="alternateBounds" />
          </mxGeometry>
        </mxCell>
        <mxCell id="GN9jJYbK2JuISig61beu-104" value="" style="shape=partialRectangle;html=1;whiteSpace=wrap;connectable=0;overflow=hidden;fillColor=none;top=1;left=1;bottom=1;right=1;pointerEvents=1;" parent="1" vertex="1">
          <mxGeometry x="-59" y="726" width="20" height="20" as="geometry">
            <mxRectangle width="20" height="20" as="alternateBounds" />
          </mxGeometry>
        </mxCell>
        <mxCell id="GN9jJYbK2JuISig61beu-105" value="" style="shape=partialRectangle;html=1;whiteSpace=wrap;connectable=0;overflow=hidden;fillColor=#000000;top=1;left=1;bottom=1;right=1;pointerEvents=1;" parent="1" vertex="1">
          <mxGeometry x="-39" y="726" width="20" height="20" as="geometry">
            <mxRectangle width="20" height="20" as="alternateBounds" />
          </mxGeometry>
        </mxCell>
        <mxCell id="GN9jJYbK2JuISig61beu-106" value="" style="shape=partialRectangle;html=1;whiteSpace=wrap;connectable=0;overflow=hidden;fillColor=none;top=1;left=1;bottom=1;right=1;pointerEvents=1;" parent="1" vertex="1">
          <mxGeometry x="-19" y="726" width="20" height="20" as="geometry">
            <mxRectangle width="20" height="20" as="alternateBounds" />
          </mxGeometry>
        </mxCell>
        <mxCell id="GN9jJYbK2JuISig61beu-107" value="" style="shape=partialRectangle;html=1;whiteSpace=wrap;connectable=0;overflow=hidden;fillColor=none;top=1;left=1;bottom=1;right=1;pointerEvents=1;" parent="1" vertex="1">
          <mxGeometry x="1" y="726" width="20" height="20" as="geometry">
            <mxRectangle width="20" height="20" as="alternateBounds" />
          </mxGeometry>
        </mxCell>
        <mxCell id="GN9jJYbK2JuISig61beu-108" value="" style="shape=partialRectangle;html=1;whiteSpace=wrap;connectable=0;overflow=hidden;fillColor=#000000;top=1;left=1;bottom=1;right=1;pointerEvents=1;" parent="1" vertex="1">
          <mxGeometry x="-59" y="746" width="20" height="20" as="geometry">
            <mxRectangle width="20" height="20" as="alternateBounds" />
          </mxGeometry>
        </mxCell>
        <mxCell id="GN9jJYbK2JuISig61beu-109" value="" style="shape=partialRectangle;html=1;whiteSpace=wrap;connectable=0;overflow=hidden;fillColor=#000000;top=1;left=1;bottom=1;right=1;pointerEvents=1;" parent="1" vertex="1">
          <mxGeometry x="-39" y="746" width="20" height="20" as="geometry">
            <mxRectangle width="20" height="20" as="alternateBounds" />
          </mxGeometry>
        </mxCell>
        <mxCell id="GN9jJYbK2JuISig61beu-110" value="" style="shape=partialRectangle;html=1;whiteSpace=wrap;connectable=0;overflow=hidden;fillColor=none;top=1;left=1;bottom=1;right=1;pointerEvents=1;" parent="1" vertex="1">
          <mxGeometry x="-19" y="746" width="20" height="20" as="geometry">
            <mxRectangle width="20" height="20" as="alternateBounds" />
          </mxGeometry>
        </mxCell>
        <mxCell id="GN9jJYbK2JuISig61beu-111" value="" style="shape=partialRectangle;html=1;whiteSpace=wrap;connectable=0;overflow=hidden;fillColor=none;top=1;left=1;bottom=1;right=1;pointerEvents=1;" parent="1" vertex="1">
          <mxGeometry x="1" y="746" width="20" height="20" as="geometry">
            <mxRectangle width="20" height="20" as="alternateBounds" />
          </mxGeometry>
        </mxCell>
        <mxCell id="GN9jJYbK2JuISig61beu-112" value="" style="shape=partialRectangle;html=1;whiteSpace=wrap;connectable=0;overflow=hidden;fillColor=none;top=1;left=1;bottom=1;right=1;pointerEvents=1;" parent="1" vertex="1">
          <mxGeometry x="-59" y="766" width="20" height="20" as="geometry">
            <mxRectangle width="20" height="20" as="alternateBounds" />
          </mxGeometry>
        </mxCell>
        <mxCell id="GN9jJYbK2JuISig61beu-113" value="" style="shape=partialRectangle;html=1;whiteSpace=wrap;connectable=0;overflow=hidden;fillColor=none;top=1;left=1;bottom=1;right=1;pointerEvents=1;" parent="1" vertex="1">
          <mxGeometry x="-39" y="766" width="20" height="20" as="geometry">
            <mxRectangle width="20" height="20" as="alternateBounds" />
          </mxGeometry>
        </mxCell>
        <mxCell id="GN9jJYbK2JuISig61beu-114" value="" style="shape=partialRectangle;html=1;whiteSpace=wrap;connectable=0;overflow=hidden;fillColor=none;top=1;left=1;bottom=1;right=1;pointerEvents=1;" parent="1" vertex="1">
          <mxGeometry x="-19" y="766" width="20" height="20" as="geometry">
            <mxRectangle width="20" height="20" as="alternateBounds" />
          </mxGeometry>
        </mxCell>
        <mxCell id="GN9jJYbK2JuISig61beu-115" value="" style="shape=partialRectangle;html=1;whiteSpace=wrap;connectable=0;overflow=hidden;fillColor=none;top=1;left=1;bottom=1;right=1;pointerEvents=1;" parent="1" vertex="1">
          <mxGeometry x="1" y="766" width="20" height="20" as="geometry">
            <mxRectangle width="20" height="20" as="alternateBounds" />
          </mxGeometry>
        </mxCell>
        <mxCell id="GN9jJYbK2JuISig61beu-116" value="" style="endArrow=none;html=1;rounded=0;fillColor=#f8cecc;strokeColor=#b85450;" parent="1" edge="1">
          <mxGeometry width="50" height="50" relative="1" as="geometry">
            <mxPoint x="-270" y="794" as="sourcePoint" />
            <mxPoint x="-270" y="709" as="targetPoint" />
          </mxGeometry>
        </mxCell>
        <mxCell id="GN9jJYbK2JuISig61beu-117" value="" style="shape=partialRectangle;html=1;whiteSpace=wrap;connectable=0;overflow=hidden;fillColor=none;top=1;left=1;bottom=1;right=1;pointerEvents=1;" parent="1" vertex="1">
          <mxGeometry x="-310" y="814" width="20" height="20" as="geometry">
            <mxRectangle width="20" height="20" as="alternateBounds" />
          </mxGeometry>
        </mxCell>
        <mxCell id="GN9jJYbK2JuISig61beu-118" value="" style="shape=partialRectangle;html=1;whiteSpace=wrap;connectable=0;overflow=hidden;fillColor=none;top=1;left=1;bottom=1;right=1;pointerEvents=1;" parent="1" vertex="1">
          <mxGeometry x="-230" y="735" width="20" height="20" as="geometry">
            <mxRectangle width="20" height="20" as="alternateBounds" />
          </mxGeometry>
        </mxCell>
        <mxCell id="GN9jJYbK2JuISig61beu-119" value="" style="shape=partialRectangle;html=1;whiteSpace=wrap;connectable=0;overflow=hidden;fillColor=none;top=1;left=1;bottom=1;right=1;pointerEvents=1;" parent="1" vertex="1">
          <mxGeometry x="-250" y="735" width="20" height="20" as="geometry">
            <mxRectangle width="20" height="20" as="alternateBounds" />
          </mxGeometry>
        </mxCell>
        <mxCell id="GN9jJYbK2JuISig61beu-120" value="" style="shape=partialRectangle;html=1;whiteSpace=wrap;connectable=0;overflow=hidden;fillColor=#000000;top=1;left=1;bottom=1;right=1;pointerEvents=1;" parent="1" vertex="1">
          <mxGeometry x="-263" y="814" width="20" height="20" as="geometry">
            <mxRectangle width="20" height="20" as="alternateBounds" />
          </mxGeometry>
        </mxCell>
        <mxCell id="GN9jJYbK2JuISig61beu-121" value="" style="shape=partialRectangle;html=1;whiteSpace=wrap;connectable=0;overflow=hidden;fillColor=none;top=1;left=1;bottom=1;right=1;pointerEvents=1;" parent="1" vertex="1">
          <mxGeometry x="-223" y="814" width="20" height="20" as="geometry">
            <mxRectangle width="20" height="20" as="alternateBounds" />
          </mxGeometry>
        </mxCell>
        <mxCell id="GN9jJYbK2JuISig61beu-122" value="" style="shape=partialRectangle;html=1;whiteSpace=wrap;connectable=0;overflow=hidden;fillColor=none;top=1;left=1;bottom=1;right=1;pointerEvents=1;" parent="1" vertex="1">
          <mxGeometry x="-243" y="814" width="20" height="20" as="geometry">
            <mxRectangle width="20" height="20" as="alternateBounds" />
          </mxGeometry>
        </mxCell>
        <mxCell id="GN9jJYbK2JuISig61beu-123" value="" style="endArrow=none;html=1;rounded=0;fillColor=#f8cecc;strokeColor=#b85450;" parent="1" edge="1">
          <mxGeometry width="50" height="50" relative="1" as="geometry">
            <mxPoint x="-243" y="854" as="sourcePoint" />
            <mxPoint x="-243" y="779" as="targetPoint" />
          </mxGeometry>
        </mxCell>
        <mxCell id="GN9jJYbK2JuISig61beu-124" value="" style="shape=partialRectangle;html=1;whiteSpace=wrap;connectable=0;overflow=hidden;fillColor=#000000;top=1;left=1;bottom=1;right=1;pointerEvents=1;" parent="1" vertex="1">
          <mxGeometry x="-275.5" y="897" width="20" height="20" as="geometry">
            <mxRectangle width="20" height="20" as="alternateBounds" />
          </mxGeometry>
        </mxCell>
        <mxCell id="GN9jJYbK2JuISig61beu-125" value="" style="shape=partialRectangle;html=1;whiteSpace=wrap;connectable=0;overflow=hidden;fillColor=none;top=1;left=1;bottom=1;right=1;pointerEvents=1;" parent="1" vertex="1">
          <mxGeometry x="-208.5" y="897" width="20" height="20" as="geometry">
            <mxRectangle width="20" height="20" as="alternateBounds" />
          </mxGeometry>
        </mxCell>
        <mxCell id="GN9jJYbK2JuISig61beu-126" value="" style="shape=partialRectangle;html=1;whiteSpace=wrap;connectable=0;overflow=hidden;fillColor=none;top=1;left=1;bottom=1;right=1;pointerEvents=1;" parent="1" vertex="1">
          <mxGeometry x="-228.5" y="897" width="20" height="20" as="geometry">
            <mxRectangle width="20" height="20" as="alternateBounds" />
          </mxGeometry>
        </mxCell>
        <mxCell id="GN9jJYbK2JuISig61beu-127" value="" style="endArrow=none;html=1;rounded=0;fillColor=#f8cecc;strokeColor=#b85450;" parent="1" edge="1">
          <mxGeometry width="50" height="50" relative="1" as="geometry">
            <mxPoint x="-89" y="746" as="sourcePoint" />
            <mxPoint x="43" y="746" as="targetPoint" />
          </mxGeometry>
        </mxCell>
        <mxCell id="GN9jJYbK2JuISig61beu-128" value="" style="shape=partialRectangle;html=1;whiteSpace=wrap;connectable=0;overflow=hidden;fillColor=none;top=1;left=1;bottom=1;right=1;pointerEvents=1;" parent="1" vertex="1">
          <mxGeometry x="-118" y="838" width="20" height="20" as="geometry">
            <mxRectangle width="20" height="20" as="alternateBounds" />
          </mxGeometry>
        </mxCell>
        <mxCell id="GN9jJYbK2JuISig61beu-129" value="" style="shape=partialRectangle;html=1;whiteSpace=wrap;connectable=0;overflow=hidden;fillColor=#000000;top=1;left=1;bottom=1;right=1;pointerEvents=1;" parent="1" vertex="1">
          <mxGeometry x="-98" y="838" width="20" height="20" as="geometry">
            <mxRectangle width="20" height="20" as="alternateBounds" />
          </mxGeometry>
        </mxCell>
        <mxCell id="GN9jJYbK2JuISig61beu-130" value="" style="shape=partialRectangle;html=1;whiteSpace=wrap;connectable=0;overflow=hidden;fillColor=none;top=1;left=1;bottom=1;right=1;pointerEvents=1;" parent="1" vertex="1">
          <mxGeometry x="-78" y="838" width="20" height="20" as="geometry">
            <mxRectangle width="20" height="20" as="alternateBounds" />
          </mxGeometry>
        </mxCell>
        <mxCell id="GN9jJYbK2JuISig61beu-131" value="" style="shape=partialRectangle;html=1;whiteSpace=wrap;connectable=0;overflow=hidden;fillColor=none;top=1;left=1;bottom=1;right=1;pointerEvents=1;" parent="1" vertex="1">
          <mxGeometry x="-58" y="838" width="20" height="20" as="geometry">
            <mxRectangle width="20" height="20" as="alternateBounds" />
          </mxGeometry>
        </mxCell>
        <mxCell id="GN9jJYbK2JuISig61beu-133" value="" style="shape=partialRectangle;html=1;whiteSpace=wrap;connectable=0;overflow=hidden;fillColor=#000000;top=1;left=1;bottom=1;right=1;pointerEvents=1;" parent="1" vertex="1">
          <mxGeometry x="22" y="831" width="20" height="20" as="geometry">
            <mxRectangle width="20" height="20" as="alternateBounds" />
          </mxGeometry>
        </mxCell>
        <mxCell id="GN9jJYbK2JuISig61beu-134" value="" style="shape=partialRectangle;html=1;whiteSpace=wrap;connectable=0;overflow=hidden;fillColor=#000000;top=1;left=1;bottom=1;right=1;pointerEvents=1;" parent="1" vertex="1">
          <mxGeometry x="42" y="831" width="20" height="20" as="geometry">
            <mxRectangle width="20" height="20" as="alternateBounds" />
          </mxGeometry>
        </mxCell>
        <mxCell id="GN9jJYbK2JuISig61beu-135" value="" style="shape=partialRectangle;html=1;whiteSpace=wrap;connectable=0;overflow=hidden;fillColor=none;top=1;left=1;bottom=1;right=1;pointerEvents=1;" parent="1" vertex="1">
          <mxGeometry x="62" y="831" width="20" height="20" as="geometry">
            <mxRectangle width="20" height="20" as="alternateBounds" />
          </mxGeometry>
        </mxCell>
        <mxCell id="GN9jJYbK2JuISig61beu-136" value="" style="shape=partialRectangle;html=1;whiteSpace=wrap;connectable=0;overflow=hidden;fillColor=none;top=1;left=1;bottom=1;right=1;pointerEvents=1;" parent="1" vertex="1">
          <mxGeometry x="82" y="831" width="20" height="20" as="geometry">
            <mxRectangle width="20" height="20" as="alternateBounds" />
          </mxGeometry>
        </mxCell>
        <mxCell id="GN9jJYbK2JuISig61beu-137" value="" style="shape=partialRectangle;html=1;whiteSpace=wrap;connectable=0;overflow=hidden;fillColor=none;top=1;left=1;bottom=1;right=1;pointerEvents=1;" parent="1" vertex="1">
          <mxGeometry x="22" y="851" width="20" height="20" as="geometry">
            <mxRectangle width="20" height="20" as="alternateBounds" />
          </mxGeometry>
        </mxCell>
        <mxCell id="GN9jJYbK2JuISig61beu-138" value="" style="shape=partialRectangle;html=1;whiteSpace=wrap;connectable=0;overflow=hidden;fillColor=none;top=1;left=1;bottom=1;right=1;pointerEvents=1;" parent="1" vertex="1">
          <mxGeometry x="42" y="851" width="20" height="20" as="geometry">
            <mxRectangle width="20" height="20" as="alternateBounds" />
          </mxGeometry>
        </mxCell>
        <mxCell id="GN9jJYbK2JuISig61beu-139" value="" style="shape=partialRectangle;html=1;whiteSpace=wrap;connectable=0;overflow=hidden;fillColor=none;top=1;left=1;bottom=1;right=1;pointerEvents=1;" parent="1" vertex="1">
          <mxGeometry x="62" y="851" width="20" height="20" as="geometry">
            <mxRectangle width="20" height="20" as="alternateBounds" />
          </mxGeometry>
        </mxCell>
        <mxCell id="GN9jJYbK2JuISig61beu-140" value="" style="shape=partialRectangle;html=1;whiteSpace=wrap;connectable=0;overflow=hidden;fillColor=none;top=1;left=1;bottom=1;right=1;pointerEvents=1;" parent="1" vertex="1">
          <mxGeometry x="82" y="851" width="20" height="20" as="geometry">
            <mxRectangle width="20" height="20" as="alternateBounds" />
          </mxGeometry>
        </mxCell>
        <mxCell id="GN9jJYbK2JuISig61beu-141" value="" style="endArrow=none;html=1;rounded=0;fillColor=#f8cecc;strokeColor=#b85450;" parent="1" edge="1">
          <mxGeometry width="50" height="50" relative="1" as="geometry">
            <mxPoint x="-98" y="877" as="sourcePoint" />
            <mxPoint x="-98" y="817" as="targetPoint" />
          </mxGeometry>
        </mxCell>
        <mxCell id="GN9jJYbK2JuISig61beu-142" value="" style="shape=partialRectangle;html=1;whiteSpace=wrap;connectable=0;overflow=hidden;fillColor=none;top=1;left=1;bottom=1;right=1;pointerEvents=1;" parent="1" vertex="1">
          <mxGeometry x="-142" y="913" width="20" height="20" as="geometry">
            <mxRectangle width="20" height="20" as="alternateBounds" />
          </mxGeometry>
        </mxCell>
        <mxCell id="GN9jJYbK2JuISig61beu-143" value="" style="shape=partialRectangle;html=1;whiteSpace=wrap;connectable=0;overflow=hidden;fillColor=#000000;top=1;left=1;bottom=1;right=1;pointerEvents=1;" parent="1" vertex="1">
          <mxGeometry x="-88" y="913" width="20" height="20" as="geometry">
            <mxRectangle width="20" height="20" as="alternateBounds" />
          </mxGeometry>
        </mxCell>
        <mxCell id="GN9jJYbK2JuISig61beu-144" value="" style="shape=partialRectangle;html=1;whiteSpace=wrap;connectable=0;overflow=hidden;fillColor=none;top=1;left=1;bottom=1;right=1;pointerEvents=1;" parent="1" vertex="1">
          <mxGeometry x="-68" y="913" width="20" height="20" as="geometry">
            <mxRectangle width="20" height="20" as="alternateBounds" />
          </mxGeometry>
        </mxCell>
        <mxCell id="GN9jJYbK2JuISig61beu-145" value="" style="shape=partialRectangle;html=1;whiteSpace=wrap;connectable=0;overflow=hidden;fillColor=none;top=1;left=1;bottom=1;right=1;pointerEvents=1;" parent="1" vertex="1">
          <mxGeometry x="-48" y="913" width="20" height="20" as="geometry">
            <mxRectangle width="20" height="20" as="alternateBounds" />
          </mxGeometry>
        </mxCell>
        <mxCell id="GN9jJYbK2JuISig61beu-146" value="" style="endArrow=none;html=1;rounded=0;fillColor=#f8cecc;strokeColor=#b85450;" parent="1" edge="1">
          <mxGeometry width="50" height="50" relative="1" as="geometry">
            <mxPoint x="-68" y="948" as="sourcePoint" />
            <mxPoint x="-68" y="895" as="targetPoint" />
          </mxGeometry>
        </mxCell>
        <mxCell id="GN9jJYbK2JuISig61beu-147" value="" style="shape=partialRectangle;html=1;whiteSpace=wrap;connectable=0;overflow=hidden;fillColor=#000000;top=1;left=1;bottom=1;right=1;pointerEvents=1;" parent="1" vertex="1">
          <mxGeometry x="-112" y="987" width="20" height="20" as="geometry">
            <mxRectangle width="20" height="20" as="alternateBounds" />
          </mxGeometry>
        </mxCell>
        <mxCell id="GN9jJYbK2JuISig61beu-148" value="" style="shape=partialRectangle;html=1;whiteSpace=wrap;connectable=0;overflow=hidden;fillColor=none;top=1;left=1;bottom=1;right=1;pointerEvents=1;" parent="1" vertex="1">
          <mxGeometry x="-58" y="987" width="20" height="20" as="geometry">
            <mxRectangle width="20" height="20" as="alternateBounds" />
          </mxGeometry>
        </mxCell>
        <mxCell id="GN9jJYbK2JuISig61beu-149" value="" style="shape=partialRectangle;html=1;whiteSpace=wrap;connectable=0;overflow=hidden;fillColor=none;top=1;left=1;bottom=1;right=1;pointerEvents=1;" parent="1" vertex="1">
          <mxGeometry x="-38" y="987" width="20" height="20" as="geometry">
            <mxRectangle width="20" height="20" as="alternateBounds" />
          </mxGeometry>
        </mxCell>
        <mxCell id="GN9jJYbK2JuISig61beu-150" value="" style="endArrow=none;html=1;rounded=0;fillColor=#f8cecc;strokeColor=#b85450;" parent="1" edge="1">
          <mxGeometry width="50" height="50" relative="1" as="geometry">
            <mxPoint x="123" y="851" as="sourcePoint" />
            <mxPoint x="4" y="851" as="targetPoint" />
          </mxGeometry>
        </mxCell>
        <mxCell id="GN9jJYbK2JuISig61beu-151" value="" style="shape=partialRectangle;html=1;whiteSpace=wrap;connectable=0;overflow=hidden;fillColor=#000000;top=1;left=1;bottom=1;right=1;pointerEvents=1;" parent="1" vertex="1">
          <mxGeometry x="-5" y="913" width="20" height="20" as="geometry">
            <mxRectangle width="20" height="20" as="alternateBounds" />
          </mxGeometry>
        </mxCell>
        <mxCell id="GN9jJYbK2JuISig61beu-152" value="" style="shape=partialRectangle;html=1;whiteSpace=wrap;connectable=0;overflow=hidden;fillColor=#000000;top=1;left=1;bottom=1;right=1;pointerEvents=1;" parent="1" vertex="1">
          <mxGeometry x="15" y="913" width="20" height="20" as="geometry">
            <mxRectangle width="20" height="20" as="alternateBounds" />
          </mxGeometry>
        </mxCell>
        <mxCell id="GN9jJYbK2JuISig61beu-153" value="" style="shape=partialRectangle;html=1;whiteSpace=wrap;connectable=0;overflow=hidden;fillColor=none;top=1;left=1;bottom=1;right=1;pointerEvents=1;" parent="1" vertex="1">
          <mxGeometry x="35" y="913" width="20" height="20" as="geometry">
            <mxRectangle width="20" height="20" as="alternateBounds" />
          </mxGeometry>
        </mxCell>
        <mxCell id="GN9jJYbK2JuISig61beu-154" value="" style="shape=partialRectangle;html=1;whiteSpace=wrap;connectable=0;overflow=hidden;fillColor=none;top=1;left=1;bottom=1;right=1;pointerEvents=1;" parent="1" vertex="1">
          <mxGeometry x="55" y="913" width="20" height="20" as="geometry">
            <mxRectangle width="20" height="20" as="alternateBounds" />
          </mxGeometry>
        </mxCell>
        <mxCell id="GN9jJYbK2JuISig61beu-155" value="" style="shape=partialRectangle;html=1;whiteSpace=wrap;connectable=0;overflow=hidden;fillColor=none;top=1;left=1;bottom=1;right=1;pointerEvents=1;" parent="1" vertex="1">
          <mxGeometry x="97" y="913" width="20" height="20" as="geometry">
            <mxRectangle width="20" height="20" as="alternateBounds" />
          </mxGeometry>
        </mxCell>
        <mxCell id="GN9jJYbK2JuISig61beu-156" value="" style="shape=partialRectangle;html=1;whiteSpace=wrap;connectable=0;overflow=hidden;fillColor=none;top=1;left=1;bottom=1;right=1;pointerEvents=1;" parent="1" vertex="1">
          <mxGeometry x="117" y="913" width="20" height="20" as="geometry">
            <mxRectangle width="20" height="20" as="alternateBounds" />
          </mxGeometry>
        </mxCell>
        <mxCell id="GN9jJYbK2JuISig61beu-157" value="" style="shape=partialRectangle;html=1;whiteSpace=wrap;connectable=0;overflow=hidden;fillColor=none;top=1;left=1;bottom=1;right=1;pointerEvents=1;" parent="1" vertex="1">
          <mxGeometry x="137" y="913" width="20" height="20" as="geometry">
            <mxRectangle width="20" height="20" as="alternateBounds" />
          </mxGeometry>
        </mxCell>
        <mxCell id="GN9jJYbK2JuISig61beu-158" value="" style="shape=partialRectangle;html=1;whiteSpace=wrap;connectable=0;overflow=hidden;fillColor=none;top=1;left=1;bottom=1;right=1;pointerEvents=1;" parent="1" vertex="1">
          <mxGeometry x="157" y="913" width="20" height="20" as="geometry">
            <mxRectangle width="20" height="20" as="alternateBounds" />
          </mxGeometry>
        </mxCell>
        <mxCell id="GN9jJYbK2JuISig61beu-159" value="" style="endArrow=none;html=1;rounded=0;fillColor=#f8cecc;strokeColor=#b85450;" parent="1" edge="1">
          <mxGeometry width="50" height="50" relative="1" as="geometry">
            <mxPoint x="35" y="943" as="sourcePoint" />
            <mxPoint x="35" y="905" as="targetPoint" />
          </mxGeometry>
        </mxCell>
        <mxCell id="GN9jJYbK2JuISig61beu-160" value="" style="shape=partialRectangle;html=1;whiteSpace=wrap;connectable=0;overflow=hidden;fillColor=#000000;top=1;left=1;bottom=1;right=1;pointerEvents=1;" parent="1" vertex="1">
          <mxGeometry x="-9" y="987" width="20" height="20" as="geometry">
            <mxRectangle width="20" height="20" as="alternateBounds" />
          </mxGeometry>
        </mxCell>
        <mxCell id="GN9jJYbK2JuISig61beu-161" value="" style="shape=partialRectangle;html=1;whiteSpace=wrap;connectable=0;overflow=hidden;fillColor=#000000;top=1;left=1;bottom=1;right=1;pointerEvents=1;" parent="1" vertex="1">
          <mxGeometry x="11" y="987" width="20" height="20" as="geometry">
            <mxRectangle width="20" height="20" as="alternateBounds" />
          </mxGeometry>
        </mxCell>
        <mxCell id="GN9jJYbK2JuISig61beu-162" value="" style="shape=partialRectangle;html=1;whiteSpace=wrap;connectable=0;overflow=hidden;fillColor=none;top=1;left=1;bottom=1;right=1;pointerEvents=1;" parent="1" vertex="1">
          <mxGeometry x="38" y="987" width="20" height="20" as="geometry">
            <mxRectangle width="20" height="20" as="alternateBounds" />
          </mxGeometry>
        </mxCell>
        <mxCell id="GN9jJYbK2JuISig61beu-163" value="" style="shape=partialRectangle;html=1;whiteSpace=wrap;connectable=0;overflow=hidden;fillColor=none;top=1;left=1;bottom=1;right=1;pointerEvents=1;" parent="1" vertex="1">
          <mxGeometry x="58" y="987" width="20" height="20" as="geometry">
            <mxRectangle width="20" height="20" as="alternateBounds" />
          </mxGeometry>
        </mxCell>
        <mxCell id="GN9jJYbK2JuISig61beu-164" value="" style="endArrow=classic;html=1;rounded=0;exitX=0.376;exitY=1.297;exitDx=0;exitDy=0;exitPerimeter=0;" parent="1" source="GN9jJYbK2JuISig61beu-50" edge="1">
          <mxGeometry width="50" height="50" relative="1" as="geometry">
            <mxPoint x="-61" y="757" as="sourcePoint" />
            <mxPoint x="-197" y="726" as="targetPoint" />
          </mxGeometry>
        </mxCell>
        <mxCell id="GN9jJYbK2JuISig61beu-165" value="" style="endArrow=classic;html=1;rounded=0;" parent="1" edge="1">
          <mxGeometry width="50" height="50" relative="1" as="geometry">
            <mxPoint x="-270" y="763" as="sourcePoint" />
            <mxPoint x="-298" y="809" as="targetPoint" />
          </mxGeometry>
        </mxCell>
        <mxCell id="GN9jJYbK2JuISig61beu-166" value="" style="endArrow=classic;html=1;rounded=0;" parent="1" edge="1">
          <mxGeometry width="50" height="50" relative="1" as="geometry">
            <mxPoint x="-244" y="763" as="sourcePoint" />
            <mxPoint x="-216" y="804" as="targetPoint" />
          </mxGeometry>
        </mxCell>
        <mxCell id="GN9jJYbK2JuISig61beu-167" value="" style="endArrow=classic;html=1;rounded=0;" parent="1" edge="1">
          <mxGeometry width="50" height="50" relative="1" as="geometry">
            <mxPoint x="-229" y="839" as="sourcePoint" />
            <mxPoint x="-206" y="890" as="targetPoint" />
          </mxGeometry>
        </mxCell>
        <mxCell id="GN9jJYbK2JuISig61beu-168" value="" style="endArrow=classic;html=1;rounded=0;" parent="1" edge="1">
          <mxGeometry width="50" height="50" relative="1" as="geometry">
            <mxPoint x="-239.5" y="842" as="sourcePoint" />
            <mxPoint x="-266" y="888" as="targetPoint" />
          </mxGeometry>
        </mxCell>
        <mxCell id="GN9jJYbK2JuISig61beu-169" value="" style="endArrow=classic;html=1;rounded=0;" parent="1" edge="1">
          <mxGeometry width="50" height="50" relative="1" as="geometry">
            <mxPoint x="-116" y="677" as="sourcePoint" />
            <mxPoint x="-76" y="725" as="targetPoint" />
          </mxGeometry>
        </mxCell>
        <mxCell id="GN9jJYbK2JuISig61beu-170" value="" style="endArrow=classic;html=1;rounded=0;" parent="1" edge="1">
          <mxGeometry width="50" height="50" relative="1" as="geometry">
            <mxPoint x="-39" y="789" as="sourcePoint" />
            <mxPoint x="-68" y="831" as="targetPoint" />
          </mxGeometry>
        </mxCell>
        <mxCell id="GN9jJYbK2JuISig61beu-171" value="" style="endArrow=classic;html=1;rounded=0;" parent="1" edge="1">
          <mxGeometry width="50" height="50" relative="1" as="geometry">
            <mxPoint x="-5" y="789" as="sourcePoint" />
            <mxPoint x="18" y="829" as="targetPoint" />
          </mxGeometry>
        </mxCell>
        <mxCell id="GN9jJYbK2JuISig61beu-172" value="" style="endArrow=classic;html=1;rounded=0;" parent="1" edge="1">
          <mxGeometry width="50" height="50" relative="1" as="geometry">
            <mxPoint x="-103.5" y="862" as="sourcePoint" />
            <mxPoint x="-130" y="908" as="targetPoint" />
          </mxGeometry>
        </mxCell>
        <mxCell id="GN9jJYbK2JuISig61beu-173" value="" style="endArrow=classic;html=1;rounded=0;" parent="1" edge="1">
          <mxGeometry width="50" height="50" relative="1" as="geometry">
            <mxPoint x="-66" y="865" as="sourcePoint" />
            <mxPoint x="-48" y="909" as="targetPoint" />
          </mxGeometry>
        </mxCell>
        <mxCell id="GN9jJYbK2JuISig61beu-174" value="" style="endArrow=classic;html=1;rounded=0;" parent="1" edge="1">
          <mxGeometry width="50" height="50" relative="1" as="geometry">
            <mxPoint x="55" y="874" as="sourcePoint" />
            <mxPoint x="36" y="908" as="targetPoint" />
          </mxGeometry>
        </mxCell>
        <mxCell id="GN9jJYbK2JuISig61beu-175" value="" style="endArrow=classic;html=1;rounded=0;" parent="1" edge="1">
          <mxGeometry width="50" height="50" relative="1" as="geometry">
            <mxPoint x="45" y="939" as="sourcePoint" />
            <mxPoint x="58" y="979" as="targetPoint" />
          </mxGeometry>
        </mxCell>
        <mxCell id="GN9jJYbK2JuISig61beu-176" value="" style="endArrow=classic;html=1;rounded=0;" parent="1" edge="1">
          <mxGeometry width="50" height="50" relative="1" as="geometry">
            <mxPoint x="-78" y="937" as="sourcePoint" />
            <mxPoint x="-101" y="981" as="targetPoint" />
          </mxGeometry>
        </mxCell>
        <mxCell id="GN9jJYbK2JuISig61beu-177" value="" style="endArrow=classic;html=1;rounded=0;" parent="1" edge="1">
          <mxGeometry width="50" height="50" relative="1" as="geometry">
            <mxPoint x="-48" y="939" as="sourcePoint" />
            <mxPoint x="-30" y="983" as="targetPoint" />
          </mxGeometry>
        </mxCell>
        <mxCell id="GN9jJYbK2JuISig61beu-178" value="" style="endArrow=classic;html=1;rounded=0;" parent="1" edge="1">
          <mxGeometry width="50" height="50" relative="1" as="geometry">
            <mxPoint x="27" y="937" as="sourcePoint" />
            <mxPoint x="10" y="983" as="targetPoint" />
          </mxGeometry>
        </mxCell>
        <mxCell id="JwLJUiRS0nCmO89H3mxO-1" value="" style="endArrow=classic;html=1;rounded=0;" edge="1" parent="1">
          <mxGeometry width="50" height="50" relative="1" as="geometry">
            <mxPoint x="81" y="877" as="sourcePoint" />
            <mxPoint x="104" y="906" as="targetPoint" />
          </mxGeometry>
        </mxCell>
        <mxCell id="JwLJUiRS0nCmO89H3mxO-2" value="" style="shape=table;startSize=0;container=1;collapsible=0;childLayout=tableLayout;" vertex="1" parent="1">
          <mxGeometry x="-530" y="1236" width="100" height="100" as="geometry" />
        </mxCell>
        <mxCell id="JwLJUiRS0nCmO89H3mxO-3" value="" style="shape=tableRow;horizontal=0;startSize=0;swimlaneHead=0;swimlaneBody=0;top=0;left=0;bottom=0;right=0;collapsible=0;dropTarget=0;fillColor=none;points=[[0,0.5],[1,0.5]];portConstraint=eastwest;" vertex="1" parent="JwLJUiRS0nCmO89H3mxO-2">
          <mxGeometry width="100" height="20" as="geometry" />
        </mxCell>
        <mxCell id="JwLJUiRS0nCmO89H3mxO-4" value="" style="shape=partialRectangle;html=1;whiteSpace=wrap;connectable=0;overflow=hidden;fillColor=none;top=1;left=1;bottom=1;right=1;pointerEvents=1;" vertex="1" parent="JwLJUiRS0nCmO89H3mxO-3">
          <mxGeometry width="20" height="20" as="geometry">
            <mxRectangle width="20" height="20" as="alternateBounds" />
          </mxGeometry>
        </mxCell>
        <mxCell id="JwLJUiRS0nCmO89H3mxO-5" value="" style="shape=partialRectangle;html=1;whiteSpace=wrap;connectable=0;overflow=hidden;fillColor=#FFFFFF;top=1;left=1;bottom=1;right=1;pointerEvents=1;" vertex="1" parent="JwLJUiRS0nCmO89H3mxO-3">
          <mxGeometry x="20" width="20" height="20" as="geometry">
            <mxRectangle width="20" height="20" as="alternateBounds" />
          </mxGeometry>
        </mxCell>
        <mxCell id="JwLJUiRS0nCmO89H3mxO-6" value="" style="shape=partialRectangle;html=1;whiteSpace=wrap;connectable=0;overflow=hidden;fillColor=none;top=0;left=0;bottom=0;right=0;pointerEvents=1;" vertex="1" parent="JwLJUiRS0nCmO89H3mxO-3">
          <mxGeometry x="40" width="20" height="20" as="geometry">
            <mxRectangle width="20" height="20" as="alternateBounds" />
          </mxGeometry>
        </mxCell>
        <mxCell id="JwLJUiRS0nCmO89H3mxO-7" value="" style="shape=partialRectangle;html=1;whiteSpace=wrap;connectable=0;overflow=hidden;fillColor=#000000;top=1;left=1;bottom=1;right=1;pointerEvents=1;" vertex="1" parent="JwLJUiRS0nCmO89H3mxO-3">
          <mxGeometry x="60" width="20" height="20" as="geometry">
            <mxRectangle width="20" height="20" as="alternateBounds" />
          </mxGeometry>
        </mxCell>
        <mxCell id="JwLJUiRS0nCmO89H3mxO-8" value="" style="shape=partialRectangle;html=1;whiteSpace=wrap;connectable=0;overflow=hidden;fillColor=none;top=1;left=1;bottom=1;right=1;pointerEvents=1;" vertex="1" parent="JwLJUiRS0nCmO89H3mxO-3">
          <mxGeometry x="80" width="20" height="20" as="geometry">
            <mxRectangle width="20" height="20" as="alternateBounds" />
          </mxGeometry>
        </mxCell>
        <mxCell id="JwLJUiRS0nCmO89H3mxO-9" value="" style="shape=tableRow;horizontal=0;startSize=0;swimlaneHead=0;swimlaneBody=0;top=0;left=0;bottom=0;right=0;collapsible=0;dropTarget=0;fillColor=none;points=[[0,0.5],[1,0.5]];portConstraint=eastwest;" vertex="1" parent="JwLJUiRS0nCmO89H3mxO-2">
          <mxGeometry y="20" width="100" height="20" as="geometry" />
        </mxCell>
        <mxCell id="JwLJUiRS0nCmO89H3mxO-10" value="" style="shape=partialRectangle;html=1;whiteSpace=wrap;connectable=0;overflow=hidden;fillColor=#000000;top=0;left=0;bottom=0;right=0;pointerEvents=1;" vertex="1" parent="JwLJUiRS0nCmO89H3mxO-9">
          <mxGeometry width="20" height="20" as="geometry">
            <mxRectangle width="20" height="20" as="alternateBounds" />
          </mxGeometry>
        </mxCell>
        <mxCell id="JwLJUiRS0nCmO89H3mxO-11" value="" style="shape=partialRectangle;html=1;whiteSpace=wrap;connectable=0;overflow=hidden;fillColor=#000000;top=0;left=0;bottom=0;right=0;pointerEvents=1;" vertex="1" parent="JwLJUiRS0nCmO89H3mxO-9">
          <mxGeometry x="20" width="20" height="20" as="geometry">
            <mxRectangle width="20" height="20" as="alternateBounds" />
          </mxGeometry>
        </mxCell>
        <mxCell id="JwLJUiRS0nCmO89H3mxO-12" value="" style="shape=partialRectangle;html=1;whiteSpace=wrap;connectable=0;overflow=hidden;fillColor=#000000;top=0;left=0;bottom=0;right=0;pointerEvents=1;" vertex="1" parent="JwLJUiRS0nCmO89H3mxO-9">
          <mxGeometry x="40" width="20" height="20" as="geometry">
            <mxRectangle width="20" height="20" as="alternateBounds" />
          </mxGeometry>
        </mxCell>
        <mxCell id="JwLJUiRS0nCmO89H3mxO-13" value="" style="shape=partialRectangle;html=1;whiteSpace=wrap;connectable=0;overflow=hidden;fillColor=#000000;top=1;left=1;bottom=1;right=1;pointerEvents=1;" vertex="1" parent="JwLJUiRS0nCmO89H3mxO-9">
          <mxGeometry x="60" width="20" height="20" as="geometry">
            <mxRectangle width="20" height="20" as="alternateBounds" />
          </mxGeometry>
        </mxCell>
        <mxCell id="JwLJUiRS0nCmO89H3mxO-14" value="" style="shape=partialRectangle;html=1;whiteSpace=wrap;connectable=0;overflow=hidden;fillColor=none;top=1;left=1;bottom=1;right=1;pointerEvents=1;" vertex="1" parent="JwLJUiRS0nCmO89H3mxO-9">
          <mxGeometry x="80" width="20" height="20" as="geometry">
            <mxRectangle width="20" height="20" as="alternateBounds" />
          </mxGeometry>
        </mxCell>
        <mxCell id="JwLJUiRS0nCmO89H3mxO-15" value="" style="shape=tableRow;horizontal=0;startSize=0;swimlaneHead=0;swimlaneBody=0;top=0;left=0;bottom=0;right=0;collapsible=0;dropTarget=0;fillColor=none;points=[[0,0.5],[1,0.5]];portConstraint=eastwest;" vertex="1" parent="JwLJUiRS0nCmO89H3mxO-2">
          <mxGeometry y="40" width="100" height="20" as="geometry" />
        </mxCell>
        <mxCell id="JwLJUiRS0nCmO89H3mxO-16" value="" style="shape=partialRectangle;html=1;whiteSpace=wrap;connectable=0;overflow=hidden;fillColor=none;top=1;left=1;bottom=1;right=1;pointerEvents=1;" vertex="1" parent="JwLJUiRS0nCmO89H3mxO-15">
          <mxGeometry width="20" height="20" as="geometry">
            <mxRectangle width="20" height="20" as="alternateBounds" />
          </mxGeometry>
        </mxCell>
        <mxCell id="JwLJUiRS0nCmO89H3mxO-17" value="" style="shape=partialRectangle;html=1;whiteSpace=wrap;connectable=0;overflow=hidden;fillColor=#000000;top=0;left=0;bottom=0;right=0;pointerEvents=1;" vertex="1" parent="JwLJUiRS0nCmO89H3mxO-15">
          <mxGeometry x="20" width="20" height="20" as="geometry">
            <mxRectangle width="20" height="20" as="alternateBounds" />
          </mxGeometry>
        </mxCell>
        <mxCell id="JwLJUiRS0nCmO89H3mxO-18" value="" style="shape=partialRectangle;html=1;whiteSpace=wrap;connectable=0;overflow=hidden;fillColor=none;top=0;left=0;bottom=0;right=0;pointerEvents=1;" vertex="1" parent="JwLJUiRS0nCmO89H3mxO-15">
          <mxGeometry x="40" width="20" height="20" as="geometry">
            <mxRectangle width="20" height="20" as="alternateBounds" />
          </mxGeometry>
        </mxCell>
        <mxCell id="JwLJUiRS0nCmO89H3mxO-19" value="" style="shape=partialRectangle;html=1;whiteSpace=wrap;connectable=0;overflow=hidden;fillColor=#000000;top=1;left=1;bottom=1;right=1;pointerEvents=1;" vertex="1" parent="JwLJUiRS0nCmO89H3mxO-15">
          <mxGeometry x="60" width="20" height="20" as="geometry">
            <mxRectangle width="20" height="20" as="alternateBounds" />
          </mxGeometry>
        </mxCell>
        <mxCell id="JwLJUiRS0nCmO89H3mxO-20" value="" style="shape=partialRectangle;html=1;whiteSpace=wrap;connectable=0;overflow=hidden;fillColor=none;top=1;left=1;bottom=1;right=1;pointerEvents=1;" vertex="1" parent="JwLJUiRS0nCmO89H3mxO-15">
          <mxGeometry x="80" width="20" height="20" as="geometry">
            <mxRectangle width="20" height="20" as="alternateBounds" />
          </mxGeometry>
        </mxCell>
        <mxCell id="JwLJUiRS0nCmO89H3mxO-21" value="" style="shape=tableRow;horizontal=0;startSize=0;swimlaneHead=0;swimlaneBody=0;top=0;left=0;bottom=0;right=0;collapsible=0;dropTarget=0;fillColor=none;points=[[0,0.5],[1,0.5]];portConstraint=eastwest;" vertex="1" parent="JwLJUiRS0nCmO89H3mxO-2">
          <mxGeometry y="60" width="100" height="20" as="geometry" />
        </mxCell>
        <mxCell id="JwLJUiRS0nCmO89H3mxO-22" value="" style="shape=partialRectangle;html=1;whiteSpace=wrap;connectable=0;overflow=hidden;fillColor=#FFFFFF;top=1;left=1;bottom=1;right=1;pointerEvents=1;" vertex="1" parent="JwLJUiRS0nCmO89H3mxO-21">
          <mxGeometry width="20" height="20" as="geometry">
            <mxRectangle width="20" height="20" as="alternateBounds" />
          </mxGeometry>
        </mxCell>
        <mxCell id="JwLJUiRS0nCmO89H3mxO-23" value="" style="shape=partialRectangle;html=1;whiteSpace=wrap;connectable=0;overflow=hidden;fillColor=#000000;top=1;left=1;bottom=1;right=1;pointerEvents=1;" vertex="1" parent="JwLJUiRS0nCmO89H3mxO-21">
          <mxGeometry x="20" width="20" height="20" as="geometry">
            <mxRectangle width="20" height="20" as="alternateBounds" />
          </mxGeometry>
        </mxCell>
        <mxCell id="JwLJUiRS0nCmO89H3mxO-24" value="" style="shape=partialRectangle;html=1;whiteSpace=wrap;connectable=0;overflow=hidden;fillColor=#000000;top=1;left=1;bottom=1;right=1;pointerEvents=1;" vertex="1" parent="JwLJUiRS0nCmO89H3mxO-21">
          <mxGeometry x="40" width="20" height="20" as="geometry">
            <mxRectangle width="20" height="20" as="alternateBounds" />
          </mxGeometry>
        </mxCell>
        <mxCell id="JwLJUiRS0nCmO89H3mxO-25" value="" style="shape=partialRectangle;html=1;whiteSpace=wrap;connectable=0;overflow=hidden;fillColor=#000000;top=1;left=1;bottom=1;right=1;pointerEvents=1;" vertex="1" parent="JwLJUiRS0nCmO89H3mxO-21">
          <mxGeometry x="60" width="20" height="20" as="geometry">
            <mxRectangle width="20" height="20" as="alternateBounds" />
          </mxGeometry>
        </mxCell>
        <mxCell id="JwLJUiRS0nCmO89H3mxO-26" value="" style="shape=partialRectangle;html=1;whiteSpace=wrap;connectable=0;overflow=hidden;fillColor=#000000;top=1;left=1;bottom=1;right=1;pointerEvents=1;" vertex="1" parent="JwLJUiRS0nCmO89H3mxO-21">
          <mxGeometry x="80" width="20" height="20" as="geometry">
            <mxRectangle width="20" height="20" as="alternateBounds" />
          </mxGeometry>
        </mxCell>
        <mxCell id="JwLJUiRS0nCmO89H3mxO-27" value="" style="shape=tableRow;horizontal=0;startSize=0;swimlaneHead=0;swimlaneBody=0;top=0;left=0;bottom=0;right=0;collapsible=0;dropTarget=0;fillColor=none;points=[[0,0.5],[1,0.5]];portConstraint=eastwest;" vertex="1" parent="JwLJUiRS0nCmO89H3mxO-2">
          <mxGeometry y="80" width="100" height="20" as="geometry" />
        </mxCell>
        <mxCell id="JwLJUiRS0nCmO89H3mxO-28" value="" style="shape=partialRectangle;html=1;whiteSpace=wrap;connectable=0;overflow=hidden;fillColor=none;top=1;left=1;bottom=1;right=1;pointerEvents=1;" vertex="1" parent="JwLJUiRS0nCmO89H3mxO-27">
          <mxGeometry width="20" height="20" as="geometry">
            <mxRectangle width="20" height="20" as="alternateBounds" />
          </mxGeometry>
        </mxCell>
        <mxCell id="JwLJUiRS0nCmO89H3mxO-29" value="" style="shape=partialRectangle;html=1;whiteSpace=wrap;connectable=0;overflow=hidden;fillColor=#000000;top=1;left=1;bottom=1;right=1;pointerEvents=1;" vertex="1" parent="JwLJUiRS0nCmO89H3mxO-27">
          <mxGeometry x="20" width="20" height="20" as="geometry">
            <mxRectangle width="20" height="20" as="alternateBounds" />
          </mxGeometry>
        </mxCell>
        <mxCell id="JwLJUiRS0nCmO89H3mxO-30" value="" style="shape=partialRectangle;html=1;whiteSpace=wrap;connectable=0;overflow=hidden;fillColor=none;top=1;left=1;bottom=1;right=1;pointerEvents=1;" vertex="1" parent="JwLJUiRS0nCmO89H3mxO-27">
          <mxGeometry x="40" width="20" height="20" as="geometry">
            <mxRectangle width="20" height="20" as="alternateBounds" />
          </mxGeometry>
        </mxCell>
        <mxCell id="JwLJUiRS0nCmO89H3mxO-31" value="" style="shape=partialRectangle;html=1;whiteSpace=wrap;connectable=0;overflow=hidden;fillColor=#FFFFFF;top=1;left=1;bottom=1;right=1;pointerEvents=1;" vertex="1" parent="JwLJUiRS0nCmO89H3mxO-27">
          <mxGeometry x="60" width="20" height="20" as="geometry">
            <mxRectangle width="20" height="20" as="alternateBounds" />
          </mxGeometry>
        </mxCell>
        <mxCell id="JwLJUiRS0nCmO89H3mxO-32" value="" style="shape=partialRectangle;html=1;whiteSpace=wrap;connectable=0;overflow=hidden;fillColor=none;top=1;left=1;bottom=1;right=1;pointerEvents=1;" vertex="1" parent="JwLJUiRS0nCmO89H3mxO-27">
          <mxGeometry x="80" width="20" height="20" as="geometry">
            <mxRectangle width="20" height="20" as="alternateBounds" />
          </mxGeometry>
        </mxCell>
        <mxCell id="JwLJUiRS0nCmO89H3mxO-124" value="" style="endArrow=none;html=1;rounded=0;fillColor=#f8cecc;strokeColor=#b85450;strokeWidth=3;" edge="1" parent="1">
          <mxGeometry width="50" height="50" relative="1" as="geometry">
            <mxPoint x="-490" y="1357" as="sourcePoint" />
            <mxPoint x="-490" y="1213" as="targetPoint" />
          </mxGeometry>
        </mxCell>
        <mxCell id="JwLJUiRS0nCmO89H3mxO-125" value="" style="shape=partialRectangle;html=1;whiteSpace=wrap;connectable=0;overflow=hidden;fillColor=none;top=1;left=1;bottom=1;right=1;pointerEvents=1;" vertex="1" parent="1">
          <mxGeometry x="-584" y="1351" width="20" height="20" as="geometry">
            <mxRectangle width="20" height="20" as="alternateBounds" />
          </mxGeometry>
        </mxCell>
        <mxCell id="JwLJUiRS0nCmO89H3mxO-126" value="" style="shape=partialRectangle;html=1;whiteSpace=wrap;connectable=0;overflow=hidden;fillColor=#FFFFFF;top=1;left=1;bottom=1;right=1;pointerEvents=1;" vertex="1" parent="1">
          <mxGeometry x="-564" y="1351" width="20" height="20" as="geometry">
            <mxRectangle width="20" height="20" as="alternateBounds" />
          </mxGeometry>
        </mxCell>
        <mxCell id="JwLJUiRS0nCmO89H3mxO-127" value="" style="shape=partialRectangle;html=1;whiteSpace=wrap;connectable=0;overflow=hidden;fillColor=#000000;top=0;left=0;bottom=0;right=0;pointerEvents=1;" vertex="1" parent="1">
          <mxGeometry x="-584" y="1371" width="20" height="20" as="geometry">
            <mxRectangle width="20" height="20" as="alternateBounds" />
          </mxGeometry>
        </mxCell>
        <mxCell id="JwLJUiRS0nCmO89H3mxO-128" value="" style="shape=partialRectangle;html=1;whiteSpace=wrap;connectable=0;overflow=hidden;fillColor=#000000;top=0;left=0;bottom=0;right=0;pointerEvents=1;" vertex="1" parent="1">
          <mxGeometry x="-564" y="1371" width="20" height="20" as="geometry">
            <mxRectangle width="20" height="20" as="alternateBounds" />
          </mxGeometry>
        </mxCell>
        <mxCell id="JwLJUiRS0nCmO89H3mxO-129" value="" style="shape=partialRectangle;html=1;whiteSpace=wrap;connectable=0;overflow=hidden;fillColor=none;top=1;left=1;bottom=1;right=1;pointerEvents=1;" vertex="1" parent="1">
          <mxGeometry x="-584" y="1391" width="20" height="20" as="geometry">
            <mxRectangle width="20" height="20" as="alternateBounds" />
          </mxGeometry>
        </mxCell>
        <mxCell id="JwLJUiRS0nCmO89H3mxO-130" value="" style="shape=partialRectangle;html=1;whiteSpace=wrap;connectable=0;overflow=hidden;fillColor=#000000;top=0;left=0;bottom=0;right=0;pointerEvents=1;" vertex="1" parent="1">
          <mxGeometry x="-564" y="1391" width="20" height="20" as="geometry">
            <mxRectangle width="20" height="20" as="alternateBounds" />
          </mxGeometry>
        </mxCell>
        <mxCell id="JwLJUiRS0nCmO89H3mxO-131" value="" style="shape=partialRectangle;html=1;whiteSpace=wrap;connectable=0;overflow=hidden;fillColor=#FFFFFF;top=1;left=1;bottom=1;right=1;pointerEvents=1;" vertex="1" parent="1">
          <mxGeometry x="-584" y="1411" width="20" height="20" as="geometry">
            <mxRectangle width="20" height="20" as="alternateBounds" />
          </mxGeometry>
        </mxCell>
        <mxCell id="JwLJUiRS0nCmO89H3mxO-132" value="" style="shape=partialRectangle;html=1;whiteSpace=wrap;connectable=0;overflow=hidden;fillColor=#000000;top=1;left=1;bottom=1;right=1;pointerEvents=1;" vertex="1" parent="1">
          <mxGeometry x="-564" y="1411" width="20" height="20" as="geometry">
            <mxRectangle width="20" height="20" as="alternateBounds" />
          </mxGeometry>
        </mxCell>
        <mxCell id="JwLJUiRS0nCmO89H3mxO-133" value="" style="shape=partialRectangle;html=1;whiteSpace=wrap;connectable=0;overflow=hidden;fillColor=none;top=1;left=1;bottom=1;right=1;pointerEvents=1;" vertex="1" parent="1">
          <mxGeometry x="-584" y="1431" width="20" height="20" as="geometry">
            <mxRectangle width="20" height="20" as="alternateBounds" />
          </mxGeometry>
        </mxCell>
        <mxCell id="JwLJUiRS0nCmO89H3mxO-134" value="" style="shape=partialRectangle;html=1;whiteSpace=wrap;connectable=0;overflow=hidden;fillColor=#000000;top=1;left=1;bottom=1;right=1;pointerEvents=1;" vertex="1" parent="1">
          <mxGeometry x="-564" y="1431" width="20" height="20" as="geometry">
            <mxRectangle width="20" height="20" as="alternateBounds" />
          </mxGeometry>
        </mxCell>
      </root>
    </mxGraphModel>
  </diagram>
</mxfile>
